<?xml version="1.0" encoding="UTF-8" standalone="no"?>
<svg
   xmlns:dc="http://purl.org/dc/elements/1.1/"
   xmlns:cc="http://creativecommons.org/ns#"
   xmlns:rdf="http://www.w3.org/1999/02/22-rdf-syntax-ns#"
   xmlns:svg="http://www.w3.org/2000/svg"
   xmlns="http://www.w3.org/2000/svg"
   xmlns:sodipodi="http://sodipodi.sourceforge.net/DTD/sodipodi-0.dtd"
   xmlns:inkscape="http://www.inkscape.org/namespaces/inkscape"
   inkscape:version="0.92.3 (2405546, 2018-03-11)"
   sodipodi:docname="pigeon.svg"
   id="svg40"
   preserveAspectRatio="xMidYMid meet"
   viewBox="0 0 204.75075 134.06104"
   height="134.06104pt"
   width="204.75075pt"
   version="1.0">
  <defs
     id="defs44" />
  <sodipodi:namedview
     inkscape:current-layer="svg40"
     inkscape:window-maximized="1"
     inkscape:window-y="-8"
     inkscape:window-x="-8"
     inkscape:cy="-6.2586167"
     inkscape:cx="430.23857"
     inkscape:zoom="1.0875"
     showgrid="false"
     id="namedview42"
     inkscape:window-height="837"
     inkscape:window-width="1440"
     inkscape:pageshadow="2"
     inkscape:pageopacity="0"
     guidetolerance="10"
     gridtolerance="10"
     objecttolerance="10"
     borderopacity="1"
     bordercolor="#666666"
     pagecolor="#ffffff" />
  <metadata
     id="metadata28">
Created by potrace 1.16, written by Peter Selinger 2001-2019
<rdf:RDF>
  <cc:Work
     rdf:about="">
    <dc:format>image/svg+xml</dc:format>
    <dc:type
       rdf:resource="http://purl.org/dc/dcmitype/StillImage" />
  </cc:Work>
</rdf:RDF>
</metadata>
  <g
     transform="matrix(0.05448611,0,0,-0.06414644,-116.32784,143.76317)"
     id="g38"
     style="fill:#000000;stroke:none;stroke-width:1.56493819">
    <path
       d="m 3924,1932 c 4,-6 -4,-16 -16,-23 -13,-6 -34,-21 -47,-33 l -24,-21 6,23 c 7,30 -10,25 -36,-11 -16,-21 -18,-29 -8,-41 14,-17 5,-40 -28,-70 -14,-13 -21,-15 -21,-6 0,7 8,19 18,26 15,12 14,13 -10,14 -16,0 -28,-5 -28,-11 0,-6 -7,-8 -16,-5 -22,9 -44,-11 -44,-40 0,-27 0,-27 33,-15 14,6 28,7 31,4 3,-3 24,-7 46,-9 52,-5 90,-25 134,-69 32,-32 41,-52 61,-136 l 7,-27 -66,18 c -36,9 -66,15 -66,11 0,-3 14,-19 30,-35 34,-33 66,-115 47,-121 -7,-2 -29,-9 -49,-15 -21,-6 -41,-16 -45,-22 -4,-8 0,-9 13,-4 10,5 35,13 54,18 19,5 39,14 45,19 14,14 28,11 21,-6 -8,-23 12,-18 25,6 8,17 13,19 19,8 7,-10 11,-10 25,1 15,13 129,8 361,-16 39,-4 55,-1 68,11 9,9 16,21 16,26 0,5 6,9 14,9 8,0 22,7 30,16 9,8 20,13 25,10 5,-3 14,1 21,9 14,17 40,9 40,-12 0,-10 6,-13 16,-9 12,4 15,2 10,-9 -3,-10 1,-15 13,-15 10,0 26,-9 37,-21 13,-14 25,-18 42,-14 20,5 23,3 17,-15 -5,-15 0,-22 20,-30 14,-5 28,-10 31,-10 8,0 -18,44 -38,63 -16,16 -21,17 -35,5 -14,-11 -15,-10 -8,11 7,22 5,23 -20,17 -21,-5 -28,-3 -32,13 -3,11 -28,35 -57,52 -28,18 -60,40 -71,50 -11,9 -40,27 -65,41 -112,59 -159,98 -256,214 -54,65 -104,119 -110,121 -7,2 -19,-3 -27,-12 -17,-16 -42,-21 -33,-6 3,5 -10,12 -29,15 -26,5 -33,11 -28,23 4,11 3,14 -5,9 -7,-4 -19,-3 -28,2 -34,19 50,10 89,-9 51,-26 59,-18 11,10 -41,25 -142,42 -130,23 z"
       id="path30"
       inkscape:connector-curvature="0"
       style="stroke-width:1.56493819" />
    <path
       d="m 3492,1505 c -87,-19 -152,-52 -152,-76 0,-10 3,-18 8,-18 21,4 52,-2 52,-9 0,-13 -50,-34 -94,-39 -22,-2 -48,-9 -59,-14 -17,-10 -306,-109 -352,-122 -11,-3 -58,-16 -105,-30 -99,-28 -137,-39 -165,-44 -11,-2 -56,-10 -100,-18 -44,-8 -136,-21 -204,-30 -113,-15 -161,-27 -161,-41 0,-3 21,-15 48,-27 40,-18 64,-21 167,-21 l 120,1 -44,-19 c -24,-10 -89,-30 -144,-44 -56,-14 -117,-32 -136,-40 l -36,-15 29,-16 c 45,-24 131,-26 230,-5 109,23 95,8 -43,-44 -151,-58 -161,-62 -161,-72 0,-6 21,-15 48,-21 49,-12 161,-2 217,19 58,22 34,0 -42,-39 -97,-48 -113,-65 -82,-82 24,-12 148,-8 184,7 18,7 19,6 5,-10 -21,-26 -22,-53 -2,-61 30,-13 116,-23 137,-15 11,4 33,10 49,14 l 28,7 -20,-26 c -12,-15 -18,-33 -15,-40 10,-26 110,-32 166,-10 11,5 17,2 17,-8 0,-8 6,-19 13,-25 17,-14 105,-23 112,-11 4,5 12,6 18,2 6,-4 20,-8 31,-8 10,-1 22,-9 27,-17 30,-53 44,-62 113,-62 47,-1 66,-5 66,-14 0,-7 11,-24 25,-38 20,-20 29,-23 40,-14 9,7 15,8 20,0 9,-14 72,-13 78,3 3,8 14,2 33,-17 28,-27 32,-28 98,-23 65,4 71,3 89,-19 16,-21 24,-23 60,-18 23,4 55,13 70,21 25,12 31,12 56,-7 16,-11 40,-20 54,-20 29,0 93,25 102,40 5,8 12,7 23,-3 42,-36 62,-40 106,-21 22,10 43,22 46,26 3,4 25,-2 48,-13 36,-18 47,-20 72,-9 24,10 38,9 76,-4 61,-21 76,-20 100,3 13,11 26,16 35,11 8,-4 28,-11 46,-15 27,-5 37,-2 58,19 15,15 22,31 19,41 -5,13 0,15 35,9 34,-5 44,-3 55,12 12,16 18,17 40,6 25,-11 28,-10 38,19 9,27 14,29 39,24 22,-5 31,-2 35,10 4,9 13,14 21,11 8,-3 18,4 25,19 8,18 19,25 38,25 37,0 58,25 42,50 -12,20 -7,50 9,50 5,0 9,-10 9,-21 0,-18 2,-19 15,-9 8,7 15,24 15,38 0,23 2,24 13,10 6,-9 29,-27 49,-41 21,-14 55,-47 77,-74 48,-62 97,-103 121,-103 10,0 28,-14 40,-31 23,-31 90,-79 112,-79 7,0 35,-12 62,-26 32,-17 58,-24 75,-21 17,4 35,-1 51,-13 32,-25 57,-25 65,0 6,18 9,19 39,6 41,-17 61,-7 52,27 -5,22 -2,27 29,37 36,12 37,15 18,66 -2,6 8,16 22,22 37,17 48,53 28,92 -12,25 -13,37 -4,56 14,32 14,77 0,91 -7,7 -15,35 -20,63 -16,99 -36,114 -242,172 -138,38 -298,94 -353,123 -39,20 -58,19 -50,-2 4,-10 -5,-4 -18,12 l -25,30 -1,-30 v -31 l -69,-1 c -51,-1 -71,3 -75,13 -3,8 -17,14 -31,14 -18,0 -25,5 -25,19 0,26 -10,52 -19,47 -3,-2 -12,7 -18,20 -11,23 -10,24 10,18 11,-4 27,-13 35,-20 15,-15 32,-10 32,10 0,7 -13,25 -29,40 -27,26 -29,26 -24,7 7,-29 -11,-27 -27,4 -7,14 -21,24 -29,23 -11,-2 -16,5 -16,19 0,28 -14,41 -25,23 -7,-11 -10,-8 -10,13 0,15 2,27 5,27 8,0 50,-45 48,-51 -1,-4 7,-15 17,-24 19,-17 20,-17 21,1 1,10 0,30 -1,43 -1,14 2,21 9,17 6,-4 11,-15 11,-24 0,-10 7,-28 16,-41 13,-18 18,-20 25,-10 6,10 9,11 9,2 0,-7 7,-13 15,-13 8,0 15,-8 15,-18 0,-17 38,-62 53,-62 21,0 -19,52 -136,180 -18,19 -34,43 -37,55 -7,26 -37,31 -60,10 -13,-11 -20,-13 -25,-5 -8,13 -9,12 25,27 l 25,11 -32,13 c -18,8 -33,17 -33,21 0,4 -4,8 -8,8 -10,0 -9,-30 2,-48 10,-17 -10,-15 -28,4 -13,13 -18,13 -29,2 -8,-7 -17,-26 -21,-41 -3,-15 -11,-25 -16,-22 -5,3 -2,18 6,33 18,34 18,56 0,71 -12,10 -17,5 -27,-28 -7,-23 -16,-41 -21,-41 -11,0 -10,17 3,42 8,15 8,26 -1,44 -16,29 -30,22 -30,-15 0,-15 -5,-32 -12,-39 -9,-9 -9,-12 0,-12 7,0 12,-4 12,-10 0,-5 14,-23 30,-38 17,-16 30,-35 30,-41 0,-8 7,-10 19,-6 13,4 20,0 24,-17 4,-12 1,-25 -5,-29 -9,-6 -8,-12 2,-25 14,-15 15,-15 20,6 5,20 10,15 38,-38 18,-34 37,-64 42,-67 6,-4 10,-11 10,-16 0,-6 -4,-8 -10,-4 -5,3 -14,-13 -21,-35 -7,-22 -18,-40 -26,-40 -7,0 -13,-7 -13,-15 0,-8 -4,-15 -10,-15 -5,0 -10,4 -10,9 0,6 5,13 10,16 16,10 12,45 -5,45 -8,0 -15,-7 -15,-15 0,-8 -4,-15 -9,-15 -14,0 -20,27 -8,39 16,16 0,26 -17,12 -19,-16 -36,-6 -36,21 0,14 -5,18 -16,14 -9,-4 -23,-1 -30,5 -11,9 -11,3 1,-32 9,-24 21,-47 28,-51 9,-6 8,-10 -3,-17 -10,-7 -20,-5 -32,6 -22,20 -24,41 -3,23 13,-11 14,-10 9,4 -3,9 -11,16 -16,16 -6,0 -8,6 -5,14 6,15 -15,18 -60,10 -19,-4 -23,-11 -24,-42 -1,-33 -2,-34 -9,-12 -5,17 -8,19 -9,8 -1,-10 -6,-18 -12,-18 -5,0 -7,-4 -4,-10 4,-6 -5,-10 -20,-10 -21,0 -26,-4 -21,-16 3,-9 6,-20 6,-25 0,-6 5,-7 11,-3 8,4 9,-3 5,-23 -5,-22 -1,-36 15,-57 27,-35 16,-60 -27,-64 -24,-2 -30,1 -31,17 -1,13 3,18 12,15 7,-3 16,0 21,7 4,7 3,10 -3,6 -6,-4 -13,3 -17,16 -8,32 -7,39 4,32 6,-3 10,3 10,14 0,12 -5,21 -11,21 -6,0 -9,6 -7,13 5,14 -27,49 -37,39 -3,-4 -3,1 1,11 4,11 1,17 -9,17 -20,0 -40,26 -32,41 6,8 10,7 16,-2 6,-10 9,-10 9,-2 0,6 -4,15 -10,18 -5,3 -10,11 -10,17 0,6 8,4 18,-5 22,-20 33,-22 29,-4 -1,6 6,11 15,9 13,-2 16,2 11,15 -11,31 -14,34 -29,22 -11,-9 -17,-9 -29,1 -12,10 -15,10 -15,-3 0,-8 -10,-17 -22,-20 -28,-8 -60,20 -53,44 8,23 -15,100 -26,93 -5,-3 -9,-21 -9,-41 0,-26 -4,-34 -14,-30 -17,7 -36,-40 -36,-89 0,-42 -14,-50 -40,-24 -11,11 -31,20 -45,20 -27,0 -32,9 -13,28 8,8 9,15 2,22 -14,14 -37,-13 -53,-59 -16,-47 -13,-61 5,-28 24,44 26,27 4,-29 -10,-27 -22,-58 -27,-69 -12,-33 -16,62 -4,98 16,43 14,74 -4,74 -8,0 -15,-5 -15,-10 0,-5 -10,-7 -22,-4 -12,4 -28,1 -35,-5 -24,-20 -13,1 16,31 36,37 28,51 -9,16 -15,-14 -36,-27 -48,-30 -18,-3 -22,1 -22,20 0,13 5,27 10,30 6,3 10,11 10,17 0,6 -9,3 -20,-7 -12,-10 -19,-24 -16,-30 2,-7 -29,-42 -69,-78 -56,-51 -77,-65 -94,-60 -25,6 -50,-20 -51,-54 0,-13 -8,-24 -20,-28 -11,-3 -20,-10 -20,-14 0,-5 -12,-20 -26,-34 -15,-15 -23,-31 -18,-38 4,-7 3,-9 -3,-6 -11,7 -52,-35 -93,-93 -13,-19 -30,-41 -36,-47 -7,-7 -21,-23 -31,-36 -10,-12 -34,-35 -54,-49 -64,-49 -145,-14 -105,46 19,30 2,54 -23,32 -22,-18 -97,-46 -124,-46 -12,0 -28,4 -35,9 -15,9 -24,61 -11,61 5,0 9,7 9,15 0,9 7,18 15,21 8,4 15,12 15,19 0,7 6,15 13,18 6,2 9,8 5,12 -4,4 -25,-4 -47,-19 -22,-16 -44,-25 -50,-22 -5,3 -21,2 -36,-4 -32,-12 -65,2 -65,29 0,23 47,72 102,108 24,15 49,34 56,40 22,22 -12,16 -53,-8 -28,-17 -38,-19 -50,-9 -9,8 -27,10 -46,6 -43,-8 -75,2 -76,24 -2,22 27,45 103,83 61,31 78,49 69,77 -6,18 -12,20 -38,14 -38,-9 -89,-6 -100,5 -10,10 97,67 163,87 27,8 50,19 50,25 0,6 4,7 10,4 5,-3 7,0 4,9 -6,16 -1,19 140,90 78,40 101,56 114,82 8,18 19,31 24,28 7,-4 108,54 108,62 0,1 -16,-2 -35,-6 -42,-9 -47,6 -7,21 68,26 127,36 161,27 29,-8 37,-7 48,8 20,28 16,39 -18,41 -17,1 -36,6 -43,11 -18,13 -66,12 -134,-3 z m 637,-674 c -6,-29 -9,-54 -6,-57 10,-10 36,10 53,42 25,47 33,43 22,-12 -6,-25 -7,-62 -3,-82 l 7,-37 24,28 c 22,26 24,26 24,8 0,-20 13,-26 53,-22 11,2 17,-5 17,-17 0,-25 10,-34 26,-21 7,6 15,6 18,1 3,-5 21,-8 40,-5 33,3 35,2 38,-29 2,-23 7,-32 18,-29 40,9 59,7 65,-7 3,-10 9,-11 18,-5 27,22 57,22 68,0 10,-18 12,-19 21,-4 11,20 44,23 52,5 3,-7 3,1 0,17 l -5,30 15,-25 c 17,-29 56,-37 49,-10 -7,28 17,35 40,12 29,-30 9,-52 -44,-47 -21,2 -38,1 -38,-3 4,-23 -4,-32 -29,-32 -15,0 -33,5 -39,11 -7,7 -9,3 -6,-15 4,-19 1,-26 -11,-26 -9,0 -19,7 -22,15 -4,8 -11,12 -16,9 -6,-4 -15,0 -20,7 -8,11 -9,10 -5,-3 9,-25 -17,-42 -42,-28 -12,6 -21,17 -21,25 0,7 -4,16 -9,19 -10,6 2,-54 14,-74 5,-9 4,-11 -3,-6 -6,4 -16,24 -22,45 -10,37 -12,38 -35,28 -14,-7 -25,-15 -25,-19 0,-21 -22,-4 -37,29 -25,51 -39,51 -47,3 -4,-23 -11,-38 -16,-35 -6,3 -10,0 -10,-7 0,-7 -9,4 -20,25 -11,20 -20,46 -20,58 0,15 -5,20 -22,17 -13,-2 -23,-10 -23,-18 0,-8 -4,-20 -10,-26 -15,-17 -45,33 -45,74 0,26 -5,35 -26,42 -27,11 -64,-2 -64,-21 0,-6 5,-7 12,-3 6,4 4,-3 -5,-17 -9,-13 -17,-34 -17,-46 0,-28 -29,-103 -40,-103 -21,0 -19,57 6,141 22,72 25,92 15,99 -17,10 -1,86 17,83 14,-3 56,36 65,61 14,36 17,9 6,-43 z m -439,-31 c -6,-10 -16,-23 -23,-27 -16,-10 -60,-73 -55,-79 2,-2 31,23 63,56 33,33 63,60 67,60 22,0 3,-59 -40,-123 -135,-203 -148,-217 -198,-224 -26,-3 -44,-1 -49,6 -7,13 19,76 35,86 6,4 8,11 4,16 -3,5 0,8 8,7 7,-2 13,6 13,18 0,11 8,28 18,38 9,10 17,23 17,30 0,6 23,36 50,65 28,29 50,58 50,63 0,6 6,8 14,5 8,-3 17,1 20,9 3,8 8,14 11,14 3,0 1,-9 -5,-20 z m -770,-31 c 0,-6 7,-9 15,-5 8,3 15,3 15,1 0,-7 -163,-83 -192,-89 -15,-3 -34,-13 -43,-22 -8,-9 -24,-14 -34,-11 -10,2 -27,0 -37,-6 -18,-10 -18,-9 -2,9 9,10 16,24 15,29 -2,12 121,73 183,91 57,16 80,17 80,3 z m 950,-13 c 0,-27 -142,-284 -158,-287 -94,-16 -93,16 2,115 26,28 52,61 57,73 12,32 83,121 92,116 4,-2 7,-10 7,-17 z"
       id="path32"
       inkscape:connector-curvature="0"
       style="stroke-width:1.56493819" />
    <path
       d="m 3655,1225 c -38,-8 -98,-17 -132,-21 -46,-5 -63,-11 -63,-22 0,-10 8,-13 32,-10 l 31,5 -26,-19 c -35,-26 -34,-38 3,-38 34,0 37,-6 13,-32 -15,-17 -14,-18 21,-18 20,0 63,11 96,25 64,27 80,30 80,16 0,-12 -123,-81 -144,-81 -20,0 -86,-32 -86,-41 0,-4 -31,-34 -70,-65 -42,-35 -65,-61 -59,-65 7,-4 8,-12 4,-20 -5,-7 12,-1 36,14 24,14 63,35 87,48 38,20 42,26 42,61 0,21 5,38 10,38 6,0 10,-7 10,-15 0,-26 38,-16 140,37 55,28 103,48 107,44 4,-4 1,-11 -7,-16 -128,-76 -156,-103 -142,-138 4,-11 7,-12 10,-4 2,7 12,12 22,12 10,0 40,15 66,33 27,18 71,45 97,60 51,30 53,35 18,42 -44,8 -52,35 -11,35 10,0 20,4 22,10 2,8 18,13 58,19 3,1 -10,10 -27,21 -18,11 -33,25 -33,32 0,6 -3,8 -6,5 -12,-12 -46,14 -40,30 5,12 1,14 -20,10 -16,-3 -27,0 -31,9 -6,17 -16,16 -108,-1 z"
       id="path34"
       inkscape:connector-curvature="0"
       style="stroke-width:1.56493819" />
    <path
       d="m 3577,903 c -9,-10 -17,-12 -17,-6 0,5 -28,-17 -62,-51 -113,-112 -218,-226 -218,-237 0,-6 9,-1 20,12 17,21 21,22 31,9 10,-13 10,-13 6,1 -3,8 8,30 24,48 22,26 32,31 42,23 10,-9 17,-6 29,8 12,13 13,20 5,23 -8,3 -3,14 12,31 28,30 38,32 43,11 2,-12 19,-2 63,35 32,27 69,50 81,50 30,0 38,26 11,35 -12,4 -25,7 -29,6 -5,-1 -8,4 -8,9 0,15 -14,12 -33,-7 z"
       id="path36"
       inkscape:connector-curvature="0"
       style="stroke-width:1.56493819" />
  </g>
  <path
     style="opacity:0.86799999;fill:#130a0a;fill-opacity:0.98342542;fill-rule:evenodd;stroke:none;stroke-width:9.81373787;stroke-linecap:round;stroke-miterlimit:4;stroke-dasharray:none;stroke-opacity:1"
     d="m 66.545842,80.996369 c 0.0026,-0.284482 1.823305,-2.799937 4.045866,-5.5899 2.788838,-3.500811 5.189883,-5.700923 7.748605,-7.100172 2.039175,-1.115129 4.56336,-2.847392 5.60931,-3.84947 3.502117,-3.355245 2.06937,-3.897209 -3.215168,-1.216192 -1.866007,0.946689 -3.971752,1.721252 -4.679429,1.721252 -1.11237,0 -1.176573,-0.20577 -0.47388,-1.51876 0.447045,-0.835317 0.535552,-1.616223 0.19668,-1.735347 -2.282308,-0.802297 -2.635941,-1.482995 -1.450787,-2.792576 1.544027,-1.706129 1.489457,-2.18111 -0.199837,-1.739351 -0.75862,0.198384 -1.37931,0.03988 -1.37931,-0.352245 0,-0.392119 1.474138,-1.024944 3.275859,-1.406278 11.464777,-2.426519 12.129584,-2.514983 12.417127,-1.652339 0.156217,0.468638 0.87885,0.852068 1.605862,0.852068 0.727013,0 1.321845,0.346662 1.321845,0.77036 0,0.423697 1.212278,1.946836 2.693948,3.384751 2.223382,2.157717 2.494432,2.690972 1.551727,3.052797 -4.412347,1.69352 -5.21799,3.012745 -2.814472,4.608624 1.381372,0.917196 1.279312,1.084298 -2.93103,4.798842 -2.399235,2.116705 -5.06052,4.220604 -5.913968,4.675336 -1.39155,0.741443 -1.551727,0.668708 -1.551727,-0.704625 0,-0.990142 1.49463,-2.914505 4.2288,-5.444643 2.32584,-2.152282 3.912427,-4.108765 3.525757,-4.347742 -0.386677,-0.238977 -2.98791,1.053714 -5.78052,2.872646 -6.154319,4.008533 -7.491277,4.581161 -7.491277,3.208561 0,-2.181411 -1.284142,-0.85851 -1.730355,1.782577 -0.384118,2.273579 -1.115073,3.303509 -3.915651,5.517239 -3.334584,2.635837 -4.704042,3.279022 -4.693975,2.204587 z"
     id="path3749"
     inkscape:connector-curvature="0" />
  <path
     style="opacity:0.86799999;fill:#130a0a;fill-opacity:0.98342542;fill-rule:evenodd;stroke:none;stroke-width:9.81373787;stroke-linecap:round;stroke-miterlimit:4;stroke-dasharray:none;stroke-opacity:1"
     d=""
     id="path3751"
     inkscape:connector-curvature="0" />
</svg>
